<svg width="24" height="24" viewBox="0 0 24 24" fill="none" xmlns="http://www.w3.org/2000/svg">
<path d="M0 12C0 5.37258 5.37258 0 12 0V0C18.6274 0 24 5.37258 24 12V12C24 18.6274 18.6274 24 12 24V24C5.37258 24 0 18.6274 0 12V12Z" fill="white"/>
<path fill-rule="evenodd" clip-rule="evenodd" d="M8.53033 8.75C8.53033 8.33579 8.86612 8 9.28033 8H15.2907C15.705 8 16.0407 8.33579 16.0407 8.75V14.7604C16.0407 15.1746 15.705 15.5104 15.2907 15.5104C14.8765 15.5104 14.5407 15.1746 14.5407 14.7604V10.5607L9.28033 15.8211C8.98744 16.114 8.51256 16.114 8.21967 15.8211C7.92678 15.5282 7.92678 15.0533 8.21967 14.7604L13.4801 9.5H9.28033C8.86612 9.5 8.53033 9.16421 8.53033 8.75Z" fill="#24292E"/>
</svg>
